<svg xmlns="http://www.w3.org/2000/svg" width="96" height="96" viewBox="0 0 48 48" role="img" aria-label="CarCareo">
  <rect width="48" height="48" rx="10" fill="#F6F1E7"/>
  <path d="M5.5,14 H42.5 A1.5,1.5 0 0 1 42.5,17 H5.5 A1.5,1.5 0 0 1 5.5,14 Z" fill="#DED5C4"/>
  <path d="M5.5,14 H16.5 A1.5,1.5 0 0 1 16.5,17 H5.5 A1.5,1.5 0 0 1 5.5,14 Z" fill="#17140F"/>
  <path d="M19.5,7.5 V23.5 A1.5,1.5 0 0 1 16.5,23.5 V7.5 A1.5,1.5 0 0 1 19.5,7.5 Z" fill="#17140F"/>
  <path d="M12.5,15.5 A5.5,5.5 0 1 1 23.5,15.5 A5.5,5.5 0 1 1 12.5,15.5 Z" fill="#F6F1E7"/>
  <path d="M14,15.5 A4,4 0 1 1 22,15.5 A4,4 0 1 1 14,15.5 Z" fill="#A32A1E"/>
  <path d="M5.5,31 H8.5 A1.5,1.5 0 0 1 8.5,34 H5.5 A1.5,1.5 0 0 1 5.5,31 Z" fill="#17140F"/>
  <path d="M15.5,31 H26.5 A1.5,1.5 0 0 1 26.5,34 H15.5 A1.5,1.5 0 0 1 15.5,31 Z" fill="#17140F"/>
  <path d="M33.5,31 H42.5 A1.5,1.5 0 0 1 42.5,34 H33.5 A1.5,1.5 0 0 1 33.5,31 Z" fill="#DED5C4"/>
  <path d="M5.5,39 H26.5 A1.5,1.5 0 0 1 26.5,42 H5.5 A1.5,1.5 0 0 1 5.5,39 Z" fill="#17140F"/>
  <path d="M33.5,39 H36.5 A1.5,1.5 0 0 1 36.5,42 H33.5 A1.5,1.5 0 0 1 33.5,39 Z" fill="#DED5C4"/>
</svg>
